<svg width="109" height="103" viewBox="0 0 109 103" fill="none" xmlns="http://www.w3.org/2000/svg">
<rect width="109" height="103" rx="39" fill="#019F1A"/>
<path d="M54.5 4.62695C39.2379 4.62695 26.8242 16.3573 26.8242 30.7793C26.8242 45.2013 39.2379 56.9316 54.5 56.9316C69.7621 56.9316 82.1758 45.2013 82.1758 30.7793C82.1758 16.3573 69.7621 4.62695 54.5 4.62695ZM52.7266 10.8888L50.22 17.9793L61.3212 16.8803L60.2172 13.3685L63.3305 14.183V18.0791L68.1935 18.3789L67.2424 14.8825L69.7985 13.4835C75.0248 17.6132 78.3438 23.8222 78.3438 30.7793C78.3438 34.1324 77.572 37.3115 76.1882 40.1684L70.6254 41.058V47.3905C69.5642 48.3106 68.4171 49.1381 67.1981 49.8629L64.8103 46.3528L60.1582 47.5518L61.4654 52.3369C59.2071 52.9843 56.8599 53.3125 54.5 53.3105C47.8976 53.3105 41.9316 50.7889 37.6184 46.7069L41.8677 46.1533L44.7226 40.858L35.6296 36.5622L42.0791 31.3667L36.4758 26.9711L30.7506 28.7742C31.4131 21.6431 35.5732 15.4762 41.6067 11.8118L42.8193 20.9764L52.7266 10.8888ZM61.0038 23.8075L53.3036 28.4698L60.0322 34.1214L64.8918 32.7791L64.4431 38.2894L73.3398 36.1701L69.9752 28.9645L64.5927 29.0351L69.3774 25.1497L61.004 23.8075H61.0038ZM53.0049 31.9314L48.8929 33.6267L51.8084 35.6754L53.0049 31.9314ZM43.3477 32.5659L40.4933 35.7625L48.4015 41.0147L43.3477 32.5659ZM56.0701 34.3332L53.1545 39.4906L60.1821 44.0118L57.7146 40.6912L60.7798 37.2297L56.0701 34.3332ZM12.8096 39.8443C10.9324 39.8167 9.01102 42.0759 8.99995 47.8674C8.98334 56.7498 8.0726 59.257 12.4226 69.3025C15.6123 76.669 17.0427 82.331 27.25 86.9062C28.4592 90.9341 27.9766 91.8812 27.1563 95.3233C26.3908 98.5368 34.2718 99.1274 40.0434 96.4203C46.2366 93.2281 45.717 84.4391 44.6106 78.479C43.3239 71.5478 39.2756 70.1072 35.7665 67.1465C32.1229 62.2229 31.2749 53.3033 25.3655 49.7051C24.1314 48.9538 17.8355 48.1909 26.4857 68.6036C15.081 65.9345 17.1583 53.5614 16.3336 44.4006C16.0879 41.6726 14.4659 39.8682 12.8096 39.8441V39.8443ZM96.1904 39.8443C94.5341 39.8684 92.9121 41.6726 92.6664 44.4008C91.8417 53.5614 93.919 65.9345 82.5143 68.6036C91.1647 48.1907 84.8686 48.9538 83.6345 49.7051C77.7251 53.3033 76.8774 62.2229 73.2335 67.1467C69.7247 70.1072 65.6759 71.5478 64.3894 78.479C63.283 84.4391 62.7633 93.2281 68.9566 96.4203C74.7282 99.1272 82.6092 98.5368 81.8435 95.3233C81.0234 91.8812 80.5408 90.9341 81.75 86.9062C91.9573 82.331 93.3877 76.669 96.5774 69.3025C100.927 59.257 100.017 56.7498 100 47.8676C99.989 42.0759 98.0676 39.8167 96.1904 39.8443Z" fill="black"/>
</svg>
